# xmcd
#
# Track frame offsets: 
#        150
#        14167
#        33748
#        46199
#        63336
#        74101
#        88802
#        100036
#        113197
#        125670
#        138389
#        150505
#        162936
#        176263
#        188940
#        197131
#        207422
#        224213
#        238444
#        251534
#        262751
#        273108
#        284937
#
# Disc length: 3970 seconds
#
# Revision: 2
# Processed by: cddbd v1.5.1PL2 Copyright (c) Steve Scherf et al.
# Submitted via: ExactAudioCopy v0.95b4
#
DISCID=6e0f8017
DTITLE=Various Artist - Hvìzdy americké country CD3
DYEAR=2000
DGENRE=Country
TTITLE0=Dolly Parton - I will Always Love You
TTITLE1=Kenny Rogers - She Believes in Me
TTITLE2=Loretta Lynn - I Fall to Pieces
TTITLE3=Dr.Hook and the Medicine Show - Sylvia's Mother
TTITLE4=Roger Miller - When Two Worlds Collide
TTITLE5=B.J.Thomas - I'm So Lonesome I Could Cry
TTITLE6=Conway Twitty - Hello Darlin'
TTITLE7=Donna Fargo - Daddy
TTITLE8=Charlie Rich - Behind Closed Doors
TTITLE9=Don Williams - You're My Best Friend
TTITLE10=Tammy Wynette - There Goes My Everything
TTITLE11=Lynn Anderson - Listen to a Country Song
TTITLE12=Conway Twitty - After All the Good Is Gone
TTITLE13=Jim Reeves - Bimbo
TTITLE14=Johnny Cash - Sugartime
TTITLE15=Roger Miller - Engine Engine No.9
TTITLE16=The Jordanaires - Michael Row the Boat Ashore
TTITLE17=Kenny Rogers - You Light up My Life
TTITLE18=Dolly Parton - Here You Come Again
TTITLE19=Stonewall Jackson - Waterloo
TTITLE20=Don Reno and Bobby Thompson - This Land Is Your Land
TTITLE21=Donna Fargo - The Happiest Girl in the Whole USA
TTITLE22=What I`ve Got in Mind
EXTD=YEAR: 2000
EXTT0=
EXTT1=
EXTT2=
EXTT3=
EXTT4=
EXTT5=
EXTT6=
EXTT7=
EXTT8=
EXTT9=
EXTT10=
EXTT11=
EXTT12=
EXTT13=
EXTT14=
EXTT15=
EXTT16=
EXTT17=
EXTT18=
EXTT19=
EXTT20=
EXTT21=
EXTT22=
PLAYORDER=
